<svg height="512" viewBox="0 0 58 58" width="512" xmlns="http://www.w3.org/2000/svg"><g id="Page-1" fill="none" fill-rule="evenodd"><g id="011---Sweet" fill-rule="nonzero" transform="translate(0 -1)"><path id="Shape" d="m35.487 12.448c1.0230042-3.82122934 2.9233658-7.35110822 5.55-10.309 0 0 2.138-2.139 3.719-.556s-.021 3.185 1.561 4.767 3.184-.022 4.766 1.56-.021 3.185 1.567 4.773 3.185-.021 4.767 1.561-.556 3.719-.556 3.719c-2.9806185 2.6443349-6.5415466 4.5503477-10.395 5.564l-23.925 23.925c-1.0182481 3.8587239-2.9289274 7.4242063-5.578 10.409 0 0-2.138 2.138-3.719.556s.021-3.185-1.561-4.767-3.191.015-4.773-1.567.021-3.185-1.56-4.766-3.185.021-4.767-1.561.556-3.719.556-3.719c2.9639376-2.6315678 6.50157886-4.5344497 10.331-5.557z" fill="#894b9d"/><g fill="#3d324c"><path id="Shape" d="m7.552 45.175c-.46513206.0027767-.87076317-.3155206-.97868212-.7679684-.10791896-.4524479.11037322-.9195649.52668212-1.1270316l2.85-1.425c.4932118-.2416824 1.0890358-.0403425 1.334555.4509705.2455193.4913131.0488295 1.0886883-.440555 1.3380295l-2.844 1.425c-.13905714.0696945-.2924551.1059896-.448.106z"/><path id="Shape" d="m14.675 52.3c-.1544355.0019489-.307181-.032299-.446-.1-.2374485-.1184679-.4180742-.3264554-.5021012-.5781614-.0840271-.251706-.0645647-.5264889.0541012-.7638386l1.425-2.858c.1607695-.3204672.4802939-.5308217.8382114-.5518248.3579176-.0210031.699852.1505359.897.45s.2195581.6813576.0587886 1.0018248l-1.43 2.847c-.1694246.3390516-.515974.5531766-.895.553z"/><path id="Shape" d="m10.4 49.449c-.4043959-.0000863-.76893405-.2437275-.92367798-.6173454-.15474393-.373618-.06922994-.8036603.21667798-1.0896546l2.85-2.849c.2510745-.2599566.6228779-.3642126.9725073-.2726972.3496295.0915155.6226744.3645604.7141899.7141899.0915154.3496294-.0127406.7214328-.2726972.9725073l-2.85 2.849c-.1870531.1882061-.4416514.2937185-.707.293z"/><path id="Shape" d="m41.749 12.4c-.3464401-.000185-.6681037-.1796678-.8501945-.4743943-.1820909-.2947265-.1986643-.6627032-.0438055-.9726057l1.425-2.853c.1607695-.31957407.4798174-.52910317.8369614-.54965972.3571441-.02055655.6981255.15098248.8945.45s.2183081.68008565.0575386.99965972l-1.425 2.849c-.1699826.3382747-.516419.5515556-.895.551z"/><path id="Shape" d="m47.45 18.1c-.463961.0008986-.8676048-.3174445-.9748531-.7688406s.1100703-.9172752.5248531-1.1251594l2.85-1.425c.4940187-.2485281 1.0959718-.0495187 1.3445.4445.2485281.4940187.0495187 1.0959718-.4445 1.3445l-2.85 1.43c-.1400542.0682422-.2942248.1025024-.45.1z"/><path id="Shape" d="m44.6 15.251c-.4043959-.0000863-.7689341-.2437275-.923678-.6173454-.1547439-.373618-.0692299-.8036603.216678-1.0896546l2.849-2.85c.2510745-.2599566.6228779-.3642126.9725073-.2726972.3496295.0915155.6226744.3645604.7141899.7141899.0915154.3496294-.0127406.7214328-.2726972.9725073l-2.849 2.85c-.1874927.1875494-.4418052.2929434-.707.293z"/></g><rect id="Rectangle-path" fill="#24ae5f" height="30.228" rx="12.68" transform="matrix(.707 -.707 .707 .707 -12.679 29.222)" width="36.273" x="10.798" y="14.802"/><path id="Shape" d="m23.4 24.89c-.0900749 4.9484064-.8743954 9.8596665-2.33 14.59-.6602828 2.0781446-1.2044567 4.191409-1.63 6.33v.01c-.5772213-.4030222-1.1161572-.8582724-1.61-1.36l-3.44-3.44c-.2432919-.2409398-.4736163-.4946304-.69-.76.38-3.9 1.09-7.78 1.53-11.67.2633381-2.2267452.3869134-4.4678013.37-6.71l6.4-6.4c.944446 3.0467733 1.4165886 6.220246 1.4 9.41z" fill="#f0c419"/><path id="Shape" d="m39.91 40.31v.01l-4.15 4.14c-1.9848416 1.9978951-4.584424 3.2695065-7.38 3.61 2.38-5.34 4.44-10.82 4.85-16.62.3007742-6.8125444-1.2509253-13.5791983-4.49-19.58 2.9403031-.5492424 5.9801121-.0390647 8.58 1.44 1.9007691 3.9145362 3.1344062 8.1190418 3.65 12.44.5546624 4.8770321.1951873 9.814729-1.06 14.56z" fill="#f0c419"/></g></g></svg>