<svg height="512pt" viewBox="-141 0 512 512" width="512pt" xmlns="http://www.w3.org/2000/svg"><path d="m70.621094 26.484375h88.277344v132.414063h-88.277344zm0 0" fill="#4c8056"/><path d="m70.621094 0h88.277344c9.75 0 17.652343 7.90625 17.652343 17.65625v35.308594c0 4.875-3.953125 8.828125-8.828125 8.828125h-105.929687c-4.875 0-8.828125-3.953125-8.828125-8.828125v-35.308594c0-9.75 7.90625-17.65625 17.65625-17.65625zm0 0" fill="#f29c1f"/><path d="m61.792969 97.101562h105.929687c4.875 0 8.828125 3.953126 8.828125 8.828126v8.828124c0 4.875-3.953125 8.828126-8.828125 8.828126h-105.929687c-4.875 0-8.828125-3.953126-8.828125-8.828126v-8.828124c0-4.875 3.953125-8.828126 8.828125-8.828126zm0 0" fill="#7ed09e"/><path d="m229.515625 273.65625v203.035156c0 19.5-15.808594 35.308594-35.308594 35.308594h-158.898437c-19.5 0-35.308594-15.808594-35.308594-35.308594v-203.035156c-.015625-23.597656 11.765625-45.644531 31.394531-58.742188 17.085938-10.925781 29.273438-28.054687 33.992188-47.777343 3.152343-14.3125 4.90625-28.898438 5.234375-43.550781h88.277344c.328124 14.652343 2.078124 29.238281 5.230468 43.550781 4.722656 19.722656 16.90625 36.851562 33.992188 47.777343 19.628906 13.097657 31.410156 35.144532 31.394531 58.742188zm0 0" fill="#4c8056"/><path d="m201.894531 273.65625v203.035156c0 19.5-12.003906 35.308594-26.808593 35.308594h-120.652344c-14.808594 0-26.8125-15.808594-26.8125-35.308594v-203.035156c-.671875-22.0625 7.980468-43.386719 23.835937-58.742188 13.832031-12.492187 22.945313-29.363281 25.8125-47.777343 2.398438-14.398438 3.726563-28.957031 3.976563-43.550781h67.027344c.246093 14.59375 1.574218 29.152343 3.972656 43.550781 2.867187 18.414062 11.980468 35.285156 25.8125 47.777343 15.855468 15.355469 24.507812 36.679688 23.835937 58.742188zm0 0" fill="#24ae5f"/><path d="m35.308594 423.722656c-4.875 0-8.824219-3.949218-8.824219-8.824218v-132.414063c0-4.878906 3.949219-8.828125 8.824219-8.828125 4.878906 0 8.828125 3.949219 8.828125 8.828125v132.414063c0 4.875-3.949219 8.824218-8.828125 8.824218zm0 0" fill="#71c285"/><path d="m35.308594 476.691406c-4.875 0-8.824219-3.953125-8.824219-8.828125v-17.65625c0-4.875 3.949219-8.828125 8.824219-8.828125 4.878906 0 8.828125 3.953125 8.828125 8.828125v17.65625c0 4.875-3.949219 8.828125-8.828125 8.828125zm0 0" fill="#71c285"/><path d="m88.277344 273.65625h141.238281v194.207031h-141.238281c-9.753906 0-17.65625-7.90625-17.65625-17.65625v-158.898437c0-9.75 7.902344-17.652344 17.65625-17.652344zm0 0" fill="#f29c1f"/><g fill="#f0c419"><path d="m88.277344 273.65625h113.617187v194.207031h-113.617187c-9.753906 0-17.65625-7.90625-17.65625-17.65625v-158.898437c0-9.75 7.902344-17.652344 17.65625-17.652344zm0 0"/><path d="m88.277344 0h52.964844c9.75 0 17.65625 7.90625 17.65625 17.65625v44.136719h-88.277344v-44.136719c0-9.75 7.902344-17.65625 17.65625-17.65625zm0 0"/></g></svg>