<svg height="512" viewBox="0 0 52 58" width="512" xmlns="http://www.w3.org/2000/svg"><g id="Page-1" fill="none" fill-rule="evenodd"><g id="024---Boiled-Egg" fill-rule="nonzero"><path id="Shape" d="m31 28h-30c-.55228475 0-1 .4477153-1 1v4c-.00429734 1.3498152.1671432 2.6944469.51 4 1.1875336 4.617539 4.37403664 8.4640772 8.69 10.49.56931931.2570518.9733481.780615 1.0776678 1.3965025.1043197.6158876-.1047557 1.243299-.5576678 1.6734975l-.08.08c-1.6926126 1.6833257-2.64297867 3.972844-2.64 6.36 0 .5522847.44771525 1 1 1h16c.5522847 0 1-.4477153 1-1 .0029787-2.387156-.9473874-4.6766743-2.64-6.36l-.08-.08c-.4529121-.4301985-.6619875-1.0576099-.5576678-1.6734975.1043197-.6158875.5083485-1.1394507 1.0776678-1.3965025 5.6252442-2.6279995 9.2145603-8.2811722 9.2-14.49v-4c0-.5522847-.4477153-1-1-1z" fill="#ecf0f1"/><path id="Shape" d="m31 22.94c.0114876 1.7033108-.179859 3.4019319-.57 5.06l-14.1 5-14.76-5c-.39014095-1.6580681-.5814876-3.3566892-.57-5.06.03454833-6.4256665 2.14239146-12.6685297 6.01-17.8.4203342-.52291454.86760614-1.02359209 1.34-1.5 1.957509-2.1916952 4.7145697-3.50355155 7.65-3.64 8.28 0 15 12.17 15 22.94z" fill="#fdd7ad"/><path id="Shape" d="m32.0000305 33c.0026047 1.3490807-.1653949 2.6930782-.5000305 4h-30.99c-.3428568-1.3055531-.51429734-2.6501848-.51007882-4z" fill="#e64c3c"/><path id="Shape" d="m32 29v4h-32v-4c0-.5522847.44771525-1 1-1h30c.5522847 0 1 .4477153 1 1z" fill="#ecf0f1"/><path id="Shape" d="m20.98 13.2c-.0950537.4656663-.5047314.800097-.98.8-.0670388-.0021875-.1338555-.0088692-.2-.02l-4.02-.8-.8 4.02c-.0950537.4656663-.5047314.800097-.98.8-.0670388-.0021875-.1338555-.0088692-.2-.02-.2599387-.0529946-.4881678-.2071045-.6344551-.428411-.1462874-.2213065-.1986434-.4916715-.1455449-.751589l.87-4.34-2.44-1.63c-.2793852-.1839835-.4482694-.4954809-.45-.83v-2.43l-3.86-2.32c-.04995359-.02803811-.09408044-.06537622-.13-.11.4203342-.52291454.86760614-1.02359209 1.34-1.5l3.62 2.18 2.48-1.65c.2955284-.2380487.7003343-.28831086 1.0451054-.12976408.3447712.15854677.570095.49858092.5817287.87788146.0116337.37930053-.1924276.73250452-.5268341.91188262l-2.55 1.71v1.92l2.39 1.6 4.81.96c.2599387.0529946.4881678.2071045.6344551.428411.1462874.2213065.1986434.4916715.1455449.751589z" fill="#a56a43"/><path id="Shape" d="m52 14.29c0 5.71-2.46 9.31-5.81 10.37-1.4248088.4533391-2.9551912.4533391-4.38 0-3.35-1.06-5.81-4.66-5.81-10.37 0-6.91 3.58-14.29 8-14.29s8 7.38 8 14.29z" fill="#bdc3c7"/><path id="Shape" d="m47.64 54.83c-.2525312 1.8166665-1.8058656 3.1690109-3.64 3.1690109s-3.3874688-1.3523444-3.64-3.1690109c-1.44-10.06 2.4-20.11 1.45-30.17 1.4248088.4533391 2.9551912.4533391 4.38 0-.95 10.06 2.89 20.11 1.45 30.17z" fill="#95a5a5"/><path id="Shape" d="m40 14c-.5522847 0-1-.4477153-1-1-.0222611-3.21066608 1.151656-6.3146125 3.293-8.707.3918367-.37956502 1.0155809-.37504512 1.4018758.01015854s.3925793 1.0089326.0141242 1.40184146c-1.7527653 2.02565842-2.7147999 4.6162979-2.709 7.295 0 .2652165-.1053568.5195704-.2928932.7071068s-.4418903.2928932-.7071068.2928932z" fill="#ecf0f1"/><path id="Shape" d="m5.2 25c-.48811958-.0006315-.90446061-.3535703-.985-.835-.5806369-4.021284.16686836-8.1222052 2.129-11.68.28980801-.4598944.89391202-.6040531 1.36015761-.3245776.4662456.2794755.62384624.8802129.35484239 1.3525776-1.70028836 3.155952-2.35472368 6.7702278-1.869 10.322.09095843.5445138-.27653892 1.0597263-.821 1.151-.05580062.0097166-.11236115.014402-.169.014z" fill="#fff"/></g></g></svg>